<svg id="Layer_1" height="512" viewBox="0 0 128 128" width="512" xmlns="http://www.w3.org/2000/svg" data-name="Layer 1"><path d="m55 49.6h-5.75v-5.75a1.75 1.75 0 0 0 -1.75-1.75h-10a1.75 1.75 0 0 0 -1.75 1.75v5.75h-5.75a1.75 1.75 0 0 0 -1.75 1.75v10a1.75 1.75 0 0 0 1.75 1.75h5.75v5.75a1.75 1.75 0 0 0 1.75 1.75h10a1.75 1.75 0 0 0 1.75-1.75v-5.75h5.75a1.75 1.75 0 0 0 1.75-1.75v-10a1.75 1.75 0 0 0 -1.75-1.75zm-1.75 10h-5.75a1.75 1.75 0 0 0 -1.75 1.75v5.75h-6.5v-5.75a1.75 1.75 0 0 0 -1.75-1.75h-5.75v-6.5h5.75a1.75 1.75 0 0 0 1.75-1.75v-5.75h6.5v5.75a1.75 1.75 0 0 0 1.75 1.75h5.75z"/><path d="m122.027 59.161-13.351-4.215-6.712-19.4a1.75 1.75 0 0 0 -1.654-1.178h-4.49a6.242 6.242 0 0 0 -12.474 0h-3.1v-10.178a1.75 1.75 0 0 0 -1.75-1.75h-71.996a1.75 1.75 0 0 0 -1.75 1.75v64.31a1.75 1.75 0 0 0 1.75 1.75h17.119a13.25 13.25 0 1 0 26.147 0h37.16a13.25 13.25 0 1 0 26.147 0h8.427a1.75 1.75 0 0 0 1.75-1.75v-27.67a1.75 1.75 0 0 0 -1.223-1.669zm-32.444-27.286a2.753 2.753 0 0 1 2.738 2.5h-5.475a2.753 2.753 0 0 1 2.737-2.5zm-4.548 6h.048 9 .048 4.932l5.788 16.725h-24.601v-16.73zm-48.343 64.183a9.75 9.75 0 1 1 9.75-9.75 9.761 9.761 0 0 1 -9.75 9.75zm0-23a13.256 13.256 0 0 0 -12.011 7.692h-16.431v-60.81h68.5v60.81h-28.05a13.256 13.256 0 0 0 -12.008-7.692zm63.308 23a9.75 9.75 0 1 1 9.75-9.75 9.761 9.761 0 0 1 -9.75 9.75zm19.75-15.308h-7.738a13.224 13.224 0 0 0 -24.023 0h-7.739v-28.65h26.778l12.722 4.017z"/><path d="m91.167 60.875h-6a1.75 1.75 0 0 0 0 3.5h6a1.75 1.75 0 1 0 0-3.5z"/></svg>